<svg width="252" height="96" viewBox="0 0 252 96" fill="none" xmlns="http://www.w3.org/2000/svg">
<path d="M53 89.4999C53 89.4999 37 88.4005 28.261 85.0739C20.7776 82.2253 15.5202 79.2512 10.5 74.5C-0.696371 63.9034 -0.998286 47.9082 8.99693 35.788C27.1459 13.7807 59.1854 6.18962 86.0531 3.51449C131.828 -1.04319 179.615 7.88817 225.5 8.49997" stroke="black" stroke-width="3" stroke-linecap="round"/>
<path d="M64.76 45.528H67.16V26.136H64.76V24.664H81.272V30.04H78.968V26.232H69.912V35.192H76.248V32.632H78.168V39.32H76.248V36.76H69.912V45.528H72.952V47H64.76V45.528Z" fill="black"/>
<path d="M84.1512 45.528H86.5192V25.144L84.1512 24.728V23.608L89.1432 22.68V45.528H91.5112V47H84.1512V45.528Z" fill="black"/>
<path d="M96.561 53.784C95.473 53.784 94.6837 53.5493 94.193 53.08C93.7023 52.632 93.457 52.0347 93.457 51.288C93.457 50.7333 93.6063 50.2853 93.905 49.944C94.2037 49.6027 94.6303 49.432 95.185 49.432C95.6757 49.432 96.049 49.5707 96.305 49.848C96.5823 50.1467 96.721 50.5413 96.721 51.032C96.721 51.3947 96.625 51.6827 96.433 51.896C96.2623 52.1307 96.0703 52.28 95.857 52.344V52.44C96.0917 52.5253 96.369 52.568 96.689 52.568C97.2437 52.568 97.7877 52.3227 98.321 51.832C98.8543 51.3627 99.3343 50.584 99.761 49.496L100.433 47.672L94.353 31.96H92.689V30.488H99.537V31.96H97.233L101.681 44.056H101.809L106.129 31.96H103.825V30.488H109.649V31.96H107.985L101.137 49.752C100.689 50.9253 100.081 51.8853 99.313 52.632C98.5663 53.4 97.649 53.784 96.561 53.784Z" fill="black"/>
<path d="M118.916 45.528H121.316V26.136H118.916V24.664H135.428V30.04H133.124V26.232H124.068V35.192H130.404V32.632H132.324V39.32H130.404V36.76H124.068V45.528H127.108V47H118.916V45.528Z" fill="black"/>
<path d="M141.655 26.68C141.1 26.68 140.674 26.52 140.375 26.2C140.098 25.8587 139.959 25.4533 139.959 24.984V24.824C139.959 24.3547 140.098 23.96 140.375 23.64C140.674 23.2987 141.1 23.128 141.655 23.128C142.21 23.128 142.636 23.2987 142.935 23.64C143.234 23.96 143.383 24.3547 143.383 24.824V24.984C143.383 25.4533 143.234 25.8587 142.935 26.2C142.636 26.52 142.21 26.68 141.655 26.68ZM137.975 45.528H140.343V32.568L137.975 32.152V31.064L142.967 30.104V45.528H145.335V47H137.975V45.528Z" fill="black"/>
<path d="M154.533 47.384C153.53 47.384 152.655 47.1813 151.909 46.776C151.162 46.3493 150.671 45.88 150.437 45.368H150.309V47H148.389V42.04H150.309V42.712C150.309 43.6293 150.597 44.376 151.173 44.952C151.749 45.528 152.698 45.816 154.021 45.816C155.237 45.816 156.175 45.6027 156.837 45.176C157.519 44.728 157.861 44.024 157.861 43.064C157.861 41.5707 156.954 40.6213 155.141 40.216L153.221 39.8C151.642 39.4587 150.447 38.8827 149.637 38.072C148.847 37.2613 148.453 36.152 148.453 34.744C148.453 33.2933 148.954 32.1627 149.957 31.352C150.959 30.52 152.303 30.104 153.989 30.104C155.013 30.104 155.845 30.264 156.485 30.584C157.146 30.904 157.583 31.32 157.797 31.832H157.925V30.488H159.845V35.448H157.925V34.232C157.925 32.5253 156.73 31.672 154.341 31.672C153.253 31.672 152.399 31.8853 151.781 32.312C151.183 32.7173 150.885 33.368 150.885 34.264C150.885 35.0107 151.13 35.64 151.621 36.152C152.111 36.6427 152.783 36.984 153.637 37.176L155.429 37.56C157.071 37.9013 158.298 38.4667 159.109 39.256C159.941 40.0453 160.357 41.144 160.357 42.552C160.357 43.2347 160.218 43.8747 159.941 44.472C159.685 45.048 159.301 45.56 158.789 46.008C158.298 46.4347 157.69 46.7653 156.965 47C156.261 47.256 155.45 47.384 154.533 47.384Z" fill="black"/>
<path d="M163.214 45.528H165.582V25.144L163.214 24.728V23.608L168.206 22.68V32.952H168.334C168.462 32.632 168.654 32.3013 168.91 31.96C169.166 31.6187 169.486 31.3093 169.87 31.032C170.275 30.7547 170.734 30.5307 171.246 30.36C171.779 30.1893 172.376 30.104 173.038 30.104C175.022 30.104 176.44 30.6267 177.294 31.672C178.147 32.696 178.574 34.2427 178.574 36.312V45.528H180.942V47H173.582V45.528H175.95V36.536C175.95 34.9787 175.64 33.8267 175.022 33.08C174.403 32.312 173.422 31.928 172.078 31.928C171.608 31.928 171.139 31.992 170.67 32.12C170.222 32.248 169.806 32.4507 169.422 32.728C169.059 33.0053 168.76 33.3467 168.526 33.752C168.312 34.1573 168.206 34.6373 168.206 35.192V45.528H170.574V47H163.214V45.528Z" fill="black"/>
<path d="M187.342 26.68C186.788 26.68 186.361 26.52 186.062 26.2C185.785 25.8587 185.646 25.4533 185.646 24.984V24.824C185.646 24.3547 185.785 23.96 186.062 23.64C186.361 23.2987 186.788 23.128 187.342 23.128C187.897 23.128 188.324 23.2987 188.622 23.64C188.921 23.96 189.07 24.3547 189.07 24.824V24.984C189.07 25.4533 188.921 25.8587 188.622 26.2C188.324 26.52 187.897 26.68 187.342 26.68ZM183.662 45.528H186.03V32.568L183.662 32.152V31.064L188.654 30.104V45.528H191.022V47H183.662V45.528Z" fill="black"/>
<path d="M193.756 45.528H196.124V32.568L193.756 32.152V31.064L198.684 30.104V32.984H198.812C198.94 32.664 199.132 32.3333 199.388 31.992C199.666 31.6507 199.996 31.3413 200.38 31.064C200.786 30.7867 201.255 30.5627 201.788 30.392C202.322 30.2 202.908 30.104 203.548 30.104C205.532 30.104 206.951 30.6267 207.804 31.672C208.679 32.696 209.116 34.2427 209.116 36.312V45.528H211.484V47H204.124V45.528H206.492V36.536C206.492 33.464 205.202 31.928 202.62 31.928C202.151 31.928 201.682 31.992 201.212 32.12C200.764 32.248 200.348 32.4507 199.964 32.728C199.602 33.0053 199.303 33.3467 199.068 33.752C198.855 34.1573 198.748 34.6373 198.748 35.192V45.528H201.116V47H193.756V45.528Z" fill="black"/>
<path d="M220.978 53.784C219.698 53.784 218.61 53.688 217.714 53.496C216.818 53.304 216.092 53.0373 215.538 52.696C214.983 52.3547 214.578 51.9387 214.322 51.448C214.087 50.9573 213.97 50.4133 213.97 49.816C213.97 49.3893 214.066 48.9947 214.258 48.632C214.45 48.2693 214.706 47.9493 215.026 47.672C215.346 47.3947 215.708 47.16 216.114 46.968C216.519 46.7547 216.935 46.5947 217.362 46.488V46.36C216.018 45.8907 215.346 44.984 215.346 43.64C215.346 42.7867 215.612 42.1147 216.146 41.624C216.7 41.1333 217.34 40.792 218.066 40.6V40.44C217.063 40.0133 216.263 39.384 215.666 38.552C215.09 37.72 214.802 36.7173 214.802 35.544C214.802 34.712 214.951 33.9653 215.25 33.304C215.57 32.6213 216.007 32.0453 216.562 31.576C217.138 31.1067 217.81 30.744 218.578 30.488C219.346 30.232 220.188 30.104 221.106 30.104C222.108 30.104 222.962 30.2427 223.666 30.52C224.391 30.776 224.999 31.096 225.49 31.48C225.511 30.2427 225.746 29.4 226.194 28.952C226.663 28.504 227.207 28.28 227.826 28.28C228.295 28.28 228.679 28.4187 228.978 28.696C229.298 28.9733 229.458 29.3467 229.458 29.816C229.458 30.264 229.308 30.6373 229.01 30.936C228.732 31.2133 228.338 31.352 227.826 31.352C227.228 31.352 226.77 31.1387 226.45 30.712H226.354V32.312C226.588 32.632 226.834 33.048 227.09 33.56C227.346 34.072 227.474 34.7333 227.474 35.544C227.474 36.376 227.314 37.1333 226.994 37.816C226.674 38.4987 226.226 39.0747 225.65 39.544C225.095 40.0133 224.423 40.376 223.634 40.632C222.866 40.888 222.023 41.016 221.106 41.016C220.508 41.016 219.943 40.952 219.41 40.824C218.855 40.9307 218.354 41.1653 217.906 41.528C217.458 41.8693 217.234 42.2853 217.234 42.776C217.234 43.3093 217.436 43.6827 217.842 43.896C218.247 44.1093 218.93 44.216 219.89 44.216H223.666C225.543 44.216 226.93 44.6 227.826 45.368C228.743 46.1147 229.202 47.192 229.202 48.6C229.202 50.1787 228.508 51.4373 227.122 52.376C225.735 53.3147 223.687 53.784 220.978 53.784ZM221.138 39.64C222.311 39.64 223.186 39.3307 223.762 38.712C224.359 38.0933 224.658 37.2507 224.658 36.184V34.936C224.658 33.8693 224.359 33.0267 223.762 32.408C223.186 31.7893 222.311 31.48 221.138 31.48C219.964 31.48 219.079 31.7893 218.482 32.408C217.906 33.0267 217.618 33.8693 217.618 34.936V36.184C217.618 37.2507 217.906 38.0933 218.482 38.712C219.079 39.3307 219.964 39.64 221.138 39.64ZM216.306 49.656C216.306 50.5093 216.668 51.1493 217.394 51.576C218.14 52.0027 219.132 52.216 220.37 52.216H221.874C223.474 52.216 224.722 51.9493 225.618 51.416C226.535 50.8827 226.994 50.168 226.994 49.272C226.994 48.4613 226.716 47.8427 226.162 47.416C225.607 47.0107 224.636 46.808 223.25 46.808H218.258C217.575 47.1067 217.074 47.5013 216.754 47.992C216.455 48.4827 216.306 49.0373 216.306 49.656Z" fill="black"/>
<path d="M72.44 89.384C71.096 89.384 69.9973 89.1813 69.144 88.776C68.312 88.3493 67.7253 87.784 67.384 87.08H67.224V89H64.92V82.44H67.224V83.912C67.224 84.4453 67.2987 84.9467 67.448 85.416C67.6187 85.864 67.8853 86.2587 68.248 86.6C68.632 86.9413 69.1227 87.208 69.72 87.4C70.3387 87.592 71.0853 87.688 71.96 87.688C73.816 87.688 75.1493 87.2933 75.96 86.504C76.792 85.7147 77.208 84.6587 77.208 83.336C77.208 82.2053 76.888 81.32 76.248 80.68C75.6293 80.04 74.648 79.5387 73.304 79.176L71.544 78.728C69.56 78.216 68.024 77.448 66.936 76.424C65.848 75.4 65.304 73.992 65.304 72.2C65.304 71.304 65.4747 70.4933 65.816 69.768C66.1573 69.0213 66.6373 68.392 67.256 67.88C67.8747 67.368 68.6107 66.9733 69.464 66.696C70.3387 66.4187 71.2987 66.28 72.344 66.28C73.56 66.28 74.552 66.472 75.32 66.856C76.1093 67.2187 76.664 67.7307 76.984 68.392H77.176V66.664H79.48V72.904H77.176V71.432C77.176 70.8987 77.0907 70.4187 76.92 69.992C76.7707 69.5653 76.504 69.2027 76.12 68.904C75.736 68.6053 75.2347 68.3813 74.616 68.232C73.9973 68.0613 73.24 67.976 72.344 67.976C70.8507 67.976 69.7307 68.3173 68.984 69C68.2373 69.6827 67.864 70.5787 67.864 71.688C67.864 72.84 68.1947 73.7467 68.856 74.408C69.5387 75.048 70.6053 75.56 72.056 75.944L73.688 76.36C75.6293 76.872 77.1227 77.64 78.168 78.664C79.2133 79.688 79.736 81.032 79.736 82.696C79.736 83.656 79.576 84.552 79.256 85.384C78.936 86.1947 78.4667 86.8987 77.848 87.496C77.2293 88.0933 76.4613 88.5627 75.544 88.904C74.648 89.224 73.6133 89.384 72.44 89.384Z" fill="black"/>
<path d="M82.9362 93.928H85.3042V74.568L82.9362 74.152V73.064L87.9282 72.104V74.984H88.0562C88.4189 74.1947 88.9949 73.5227 89.7842 72.968C90.5736 72.392 91.6189 72.104 92.9202 72.104C94.9682 72.104 96.6002 72.8507 97.8162 74.344C99.0536 75.816 99.6722 77.9493 99.6722 80.744C99.6722 83.5387 99.0536 85.6827 97.8162 87.176C96.6002 88.648 94.9682 89.384 92.9202 89.384C91.6402 89.384 90.5949 89.1067 89.7842 88.552C88.9949 87.9973 88.4189 87.3253 88.0562 86.536H87.9282V93.928H90.9362V95.4H82.9362V93.928ZM92.1522 87.56C93.6242 87.56 94.7656 87.0693 95.5762 86.088C96.4082 85.0853 96.8242 83.752 96.8242 82.088V79.4C96.8242 77.736 96.4082 76.4133 95.5762 75.432C94.7656 74.4293 93.6242 73.928 92.1522 73.928C91.6402 73.928 91.1282 74.0027 90.6162 74.152C90.1042 74.3013 89.6456 74.5147 89.2402 74.792C88.8562 75.0693 88.5362 75.4213 88.2802 75.848C88.0456 76.2533 87.9282 76.712 87.9282 77.224V84.264C87.9282 84.776 88.0456 85.2453 88.2802 85.672C88.5362 86.0773 88.8562 86.4187 89.2402 86.696C89.6456 86.9733 90.1042 87.1867 90.6162 87.336C91.1282 87.4853 91.6402 87.56 92.1522 87.56Z" fill="black"/>
<path d="M110.618 87.816C111.407 87.816 112.09 87.688 112.666 87.432C113.263 87.1547 113.743 86.7813 114.106 86.312C114.49 85.8213 114.767 85.256 114.938 84.616C115.13 83.9547 115.226 83.24 115.226 82.472V79.016C115.226 78.248 115.13 77.544 114.938 76.904C114.767 76.2427 114.49 75.6773 114.106 75.208C113.743 74.7173 113.263 74.344 112.666 74.088C112.09 73.8107 111.407 73.672 110.618 73.672C109.807 73.672 109.114 73.8107 108.538 74.088C107.962 74.344 107.482 74.7173 107.098 75.208C106.735 75.6773 106.458 76.2427 106.266 76.904C106.095 77.544 106.01 78.248 106.01 79.016V82.472C106.01 83.24 106.095 83.9547 106.266 84.616C106.458 85.256 106.735 85.8213 107.098 86.312C107.482 86.7813 107.962 87.1547 108.538 87.432C109.114 87.688 109.807 87.816 110.618 87.816ZM110.618 89.384C109.487 89.384 108.452 89.1813 107.514 88.776C106.575 88.3707 105.775 87.7947 105.114 87.048C104.452 86.28 103.94 85.3733 103.578 84.328C103.215 83.2613 103.034 82.0667 103.034 80.744C103.034 79.4427 103.215 78.2587 103.578 77.192C103.94 76.1253 104.452 75.2187 105.114 74.472C105.775 73.704 106.575 73.1173 107.514 72.712C108.452 72.3067 109.487 72.104 110.618 72.104C111.748 72.104 112.783 72.3067 113.722 72.712C114.66 73.1173 115.46 73.704 116.122 74.472C116.783 75.2187 117.295 76.1253 117.658 77.192C118.02 78.2587 118.202 79.4427 118.202 80.744C118.202 82.0667 118.02 83.2613 117.658 84.328C117.295 85.3733 116.783 86.28 116.122 87.048C115.46 87.7947 114.66 88.3707 113.722 88.776C112.783 89.1813 111.748 89.384 110.618 89.384Z" fill="black"/>
<path d="M121.256 87.528H123.624V74.568L121.256 74.152V73.064L126.184 72.104V74.984H126.344C126.494 74.6427 126.675 74.3013 126.888 73.96C127.123 73.6187 127.4 73.3093 127.72 73.032C128.062 72.7547 128.446 72.5307 128.872 72.36C129.32 72.1893 129.832 72.104 130.408 72.104C131.347 72.104 132.094 72.328 132.648 72.776C133.224 73.224 133.512 73.8747 133.512 74.728C133.512 75.368 133.352 75.8693 133.032 76.232C132.712 76.5947 132.296 76.776 131.784 76.776C131.208 76.776 130.75 76.6267 130.408 76.328C130.067 76.008 129.896 75.6027 129.896 75.112C129.896 74.6853 129.982 74.344 130.152 74.088C130.344 73.8107 130.558 73.6507 130.792 73.608V73.544C130.707 73.5227 130.6 73.512 130.472 73.512C130.344 73.4907 130.184 73.48 129.992 73.48C129.544 73.48 129.096 73.5973 128.648 73.832C128.2 74.0453 127.795 74.3333 127.432 74.696C127.091 75.0373 126.803 75.432 126.568 75.88C126.355 76.328 126.248 76.776 126.248 77.224V87.528H129.256V89H121.256V87.528Z" fill="black"/>
<path d="M140.62 89.192C139.49 89.192 138.711 88.968 138.284 88.52C137.858 88.0507 137.644 87.2613 137.644 86.152V74.056H135.532V72.488H135.82C136.268 72.488 136.62 72.456 136.876 72.392C137.154 72.328 137.367 72.2427 137.516 72.136C137.687 72.008 137.804 71.8587 137.868 71.688C137.954 71.496 138.028 71.2827 138.092 71.048L138.828 68.2H140.268V72.488H144.524V74.056H140.268V87.432H144.524V88.488C144.332 88.5947 144.087 88.6907 143.788 88.776C143.511 88.8613 143.191 88.936 142.828 89C142.487 89.064 142.124 89.1067 141.74 89.128C141.356 89.1707 140.983 89.192 140.62 89.192Z" fill="black"/>
</svg>
